<svg width="105" height="114" viewBox="0 0 105 114" fill="none" xmlns="http://www.w3.org/2000/svg">
<path d="M84.2055 90H99C96.8083 60.0007 100.096 -0.43265 59 0.0023356C17.9041 -0.43265 21.1917 60.0007 19 90H33.7945L35.9863 36.9581C50.7808 36.0885 59 15.654 59 15.654C59 15.654 67.2192 36.0885 82.0137 36.9581L84.2055 90Z" fill="black"/>
<path d="M20 95H105L85 114H0L20 95Z" fill="#AAA1A1"/>
<path d="M0 58H85V114H0V58Z" fill="#C4C4C4"/>
<path d="M37.5 76.0229C40.9647 76.3091 43 83.0229 43 83.0229C43 83.0229 45.0353 76.3091 48.5 76.0229C52.2178 75.7158 55.0001 78.5229 55 83.0229C54.9999 88.752 43 96.5229 43 96.5229C43 96.5229 31.0001 88.752 31 83.0229C30.9999 78.523 33.7822 75.7159 37.5 76.0229Z" fill="black"/>
</svg>
